HIERARCHY
ROOT Hips
{
	OFFSET	0.00	0.00	0.00
	CHANNELS 6 Xposition Yposition Zposition Zrotation Xrotation Yrotation
	JOINT LeftUpLeg
	{
		OFFSET	 0.126116	-0.014019	-0.065224
		CHANNELS 3 Zrotation Xrotation Yrotation
		JOINT LeftLeg
		{
			OFFSET	 0.000000	 0.000000	 0.569914
			CHANNELS 3 Zrotation Xrotation Yrotation
			JOINT LeftFoot
			{
				OFFSET	 0.000000	 0.000000	 0.544423
				CHANNELS 3 Zrotation Xrotation Yrotation
				JOINT LeftToeBase
				{
					OFFSET	 0.000000	 0.000000	 0.207117
					CHANNELS 3 Zrotation Xrotation Yrotation
					End Site
					{
						OFFSET	 0.000000	 0.000000	 0.207117
					}
				}
			}
		}
	}
	JOINT RightUpLeg
	{
		OFFSET	-0.124023	-0.008373	-0.065224
		CHANNELS 3 Zrotation Xrotation Yrotation
		JOINT RightLeg
		{
			OFFSET	 0.000000	 0.000000	 0.570047
			CHANNELS 3 Zrotation Xrotation Yrotation
			JOINT RightFoot
			{
				OFFSET	 0.000000	 0.000000	 0.544354
				CHANNELS 3 Zrotation Xrotation Yrotation
				JOINT RightToeBase
				{
					OFFSET	 0.000000	 0.000000	 0.207540
					CHANNELS 3 Zrotation Xrotation Yrotation
					End Site
					{
						OFFSET	 0.000000	 0.000000	 0.207540
					}
				}
			}
		}
	}
	JOINT Spine
	{
		OFFSET	 0.000184	-0.007763	 0.117403
		CHANNELS 3 Zrotation Xrotation Yrotation
		JOINT Spine1
		{
			OFFSET	 0.000000	 0.000000	 0.137269
			CHANNELS 3 Zrotation Xrotation Yrotation
			JOINT Spine2
			{
				OFFSET	 0.000000	 0.000000	 0.156879
				CHANNELS 3 Zrotation Xrotation Yrotation
				JOINT LeftShoulder
				{
					OFFSET	 0.080501	-0.002496	 0.160144
					CHANNELS 3 Zrotation Xrotation Yrotation
					JOINT LeftArm
					{
						OFFSET	 0.000000	 0.000000	 0.164363
						CHANNELS 3 Zrotation Xrotation Yrotation
						JOINT LeftForeArm
						{
							OFFSET	 0.000000	 0.000000	 0.364576
							CHANNELS 3 Zrotation Xrotation Yrotation
							JOINT LeftHand
							{
								OFFSET	 0.000000	 0.000000	 0.360812
								CHANNELS 3 Zrotation Xrotation Yrotation
								JOINT LeftHandIndex1
								{
									OFFSET	 0.000000	 0.000000	 0.086006
									CHANNELS 3 Zrotation Xrotation Yrotation
									JOINT LeftHandIndex2
									{
										OFFSET	 0.000000	 0.000000	 0.047236
										CHANNELS 3 Zrotation Xrotation Yrotation
										JOINT LeftHandIndex3
										{
											OFFSET	-0.004284	-0.000551	 0.038166
											CHANNELS 3 Zrotation Xrotation Yrotation
											End Site
											{
												OFFSET	-0.004284	-0.000551	 0.038166
											}
										}
									}
								}
							}
						}
					}
				}
				JOINT Neck
				{
					OFFSET	 0.000000	 0.000000	 0.176489
					CHANNELS 3 Zrotation Xrotation Yrotation
					JOINT Head
					{
						OFFSET	 0.000000	-0.001747	 0.077940
						CHANNELS 3 Zrotation Xrotation Yrotation
						End Site
						{
							OFFSET	 0.000000	-0.001747	 0.077940
						}
					}
				}
				JOINT RightShoulder
				{
					OFFSET	-0.080363	 0.000306	 0.159706
					CHANNELS 3 Zrotation Xrotation Yrotation
					JOINT RightArm
					{
						OFFSET	 0.000000	 0.000000	 0.164196
						CHANNELS 3 Zrotation Xrotation Yrotation
						JOINT RightForeArm
						{
							OFFSET	 0.000000	 0.000000	 0.365611
							CHANNELS 3 Zrotation Xrotation Yrotation
							JOINT RightHand
							{
								OFFSET	 0.000000	 0.000000	 0.360648
								CHANNELS 3 Zrotation Xrotation Yrotation
								JOINT RightHandIndex1
								{
									OFFSET	 0.000000	 0.000000	 0.069977
									CHANNELS 3 Zrotation Xrotation Yrotation
									JOINT RightHandIndex2
									{
										OFFSET	 0.000000	 0.000000	 0.052305
										CHANNELS 3 Zrotation Xrotation Yrotation
										JOINT RightHandIndex3
										{
											OFFSET	 0.009002	-0.000782	 0.042196
											CHANNELS 3 Zrotation Xrotation Yrotation
											End Site
											{
												OFFSET	 0.009002	-0.000782	 0.042196
											}
										}
									}
								}
							}
						}
					}
				}
			}
		}
	}
}
MOTION
Frames:    9
Frame Time: 0.03333334
-5.972411	-18.497760	-0.005543	-39.202040	 8.042636	 1.727705	 4.533775	-22.118970	 174.171700	-1.676412	-40.154700	-0.212525	 0.121641	 84.679760	-0.610412	-2.385762	 28.468280	-0.000334	-2.468695	-23.005250	-178.759000	-0.121332	-41.012570	 0.009147	-0.269003	 85.597140	 0.524104	 2.407693	 17.423740	-0.223794	-7.724929	 8.809172	 0.087197	-12.136450	 6.572973	-1.989645	-14.199860	 3.755282	-0.476923	-115.676600	 89.397040	-153.546200	 56.048270	 59.831010	-78.154080	-3.682216	-4.356642	-20.920840	 5.719589	-10.190430	-5.424395	-3.812334	 37.924440	-2.927599	-2.450526	 36.184240	 0.754587	-1.378229	 35.397820	-2.634230	 0.456564	 2.629707	-0.629973	-3.084983	 6.698543	 0.545162	 94.719410	 86.905790	 171.576900	-53.477710	 70.175170	 71.750120	-3.176591	-12.967360	 25.901680	-22.633160	-11.099480	 9.759657	 6.437017	 35.671460	-0.771858	 2.830251	 35.756010	-7.813440	-2.350882	 35.473990	 5.254307
-5.970649	-18.496990	-0.007879	-39.249020	 8.034930	 1.824669	 4.506675	-22.698810	 174.077200	-1.768521	-41.068990	-0.309227	 0.151725	 84.968730	-0.733280	-2.385288	 28.573630	-0.002610	-2.431295	-23.478690	-178.756800	-0.069445	-41.748720	 0.084712	-0.612908	 85.840650	 0.953417	 2.407655	 17.897220	-0.214541	-7.968269	 9.018598	 0.025398	-12.122090	 6.530384	-2.038834	-14.203060	 3.668610	-0.487839	-115.260900	 89.376300	-153.911400	 55.543290	 58.691230	-77.682140	-3.852457	-3.991227	-21.843260	 4.455057	-10.212030	-5.457451	-3.812334	 37.924440	-2.927599	-2.450526	 36.184240	 0.754587	-1.378229	 35.397820	-2.634230	 0.434104	 2.400206	-0.575943	-3.083359	 6.684036	 0.426552	 94.731160	 86.886370	 171.527300	-53.141730	 69.325710	 71.868160	-3.078807	-12.894250	 26.676300	-22.001600	-11.117810	 9.790233	 6.437017	 35.671460	-0.771858	 2.830251	 35.756010	-7.813440	-2.350882	 35.473990	 5.254307
-5.967854	-18.495400	-0.011440	-39.357280	 8.074630	 1.847109	 4.589723	-23.550630	 174.024500	-1.865336	-42.276020	-0.345807	 0.444775	 85.319760	-1.042592	-2.385001	 28.639340	-0.004034	-2.405534	-24.221580	-178.673300	-0.054990	-42.823660	 0.142084	-1.020267	 86.128850	 1.412690	 2.407563	 18.301900	-0.206612	-8.380678	 9.318521	 0.038515	-12.099520	 6.434665	-2.064599	-14.218920	 3.524150	-0.506420	-114.271500	 89.327980	-154.799800	 54.610620	 57.658910	-77.163420	-3.722754	-3.883646	-23.160030	 3.860942	-10.244420	-5.508681	-3.812334	 37.924440	-2.927599	-2.450526	 36.184240	 0.754587	-1.378229	 35.397820	-2.634230	 0.398453	 2.046891	-0.554550	-3.111484	 6.694914	 0.419376	 94.774190	 86.865680	 171.422000	-52.387180	 68.278820	 71.748050	-2.883810	-12.909910	 27.968960	-21.270860	-11.162790	 9.830120	 6.437017	 35.671460	-0.771858	 2.830251	 35.756010	-7.813440	-2.350882	 35.473990	 5.254307
-5.963439	-18.492150	-0.017025	-39.521760	 8.217448	 1.845859	 4.746351	-24.807370	 173.994000	-2.021107	-44.059090	-0.385035	 0.819380	 85.820220	-1.420156	-2.384389	 28.772250	-0.006921	-2.363045	-25.601700	-178.556500	-0.114879	-44.511210	 0.173579	-1.589541	 86.534170	 1.990320	 2.407254	 19.018550	-0.192509	-9.075270	 9.784945	 0.087731	-12.077600	 6.231205	-2.091042	-14.202180	 3.268744	-0.537646	-112.967900	 89.259020	-155.970500	 53.161320	 56.664840	-76.736280	-3.947782	-3.831775	-25.333090	 3.298116	-10.302140	-5.587578	-3.812334	 37.924440	-2.927599	-2.450526	 36.184240	 0.754587	-1.378229	 35.397820	-2.634230	 0.376911	 1.561033	-0.550202	-3.113930	 6.624487	 0.540729	 94.838460	 86.811740	 171.226000	-51.256080	 66.976920	 71.859260	-2.370712	-12.969900	 29.905150	-20.353580	-11.211550	 9.919089	 6.437017	 35.671460	-0.771858	 2.830251	 35.756010	-7.813440	-2.350882	 35.473990	 5.254307
-5.957212	-18.486950	-0.024168	-39.746590	 8.560649	 1.710497	 4.793077	-26.677490	 174.085000	-2.307148	-46.348020	-0.582895	 1.016506	 86.458670	-1.756802	-2.383303	 29.007020	-0.012031	-2.235794	-27.564530	-178.459800	-0.150115	-46.755730	 0.283976	-2.025701	 87.049580	 2.493311	 2.406510	 20.017440	-0.172757	-9.961460	 10.448830	 0.255667	-12.021520	 5.895967	-2.081116	-14.111360	 2.869547	-0.583577	-112.161400	 89.180270	-156.570000	 51.413590	 55.751970	-76.354740	-4.940402	-3.549513	-28.335590	 2.194285	-10.384060	-5.687889	-3.812334	 37.924440	-2.927599	-2.450526	 36.184240	 0.754587	-1.378229	 35.397820	-2.634230	 0.411222	 0.868337	-0.596372	-3.060206	 6.439228	 0.787657	 94.893650	 86.698500	 170.946100	-49.781810	 65.701850	 72.221430	-1.416588	-12.997410	 32.209980	-19.341660	-11.292200	 10.013040	 6.437017	 35.671460	-0.771858	 2.830251	 35.756010	-7.813440	-2.350882	 35.473990	 5.254307
-5.948508	-18.478490	-0.034246	-40.095500	 9.053742	 1.696287	 4.792417	-29.504480	 173.964000	-2.716421	-49.631790	-0.929544	 1.613187	 87.384010	-2.573530	-2.381543	 29.375860	-0.020078	-2.101002	-30.367540	-178.376000	-0.011690	-50.037610	 0.554552	-3.097181	 87.794330	 3.739953	 2.405246	 21.125450	-0.150670	-11.105240	 11.615660	 0.434388	-11.865250	 5.383148	-2.156437	-13.939360	 2.188442	-0.659571	-112.081900	 89.094100	-156.314800	 49.142960	 54.854420	-75.875650	-6.260715	-3.143531	-32.244670	 0.993053	-10.527360	-5.821431	-3.812334	 37.924440	-2.927599	-2.450526	 36.184240	 0.754587	-1.378229	 35.397820	-2.634230	 0.509638	-0.097362	-0.719809	-2.965466	 5.880419	 1.203223	 94.850240	 86.481250	 170.657100	-47.535290	 64.202030	 72.284300	-0.086110	-12.889880	 35.140670	-18.024620	-11.374100	 10.170870	 6.437017	 35.671460	-0.771858	 2.830251	 35.756010	-7.813440	-2.350882	 35.473990	 5.254307
-5.939514	-18.468860	-0.045333	-40.442810	 9.610787	 1.794377	 4.702919	-32.674400	 173.671800	-3.291642	-53.263180	-1.486148	 4.053415	 88.399540	-5.337663	-2.379745	 29.739500	-0.028055	-2.022726	-33.585680	-178.342700	 0.143136	-53.564350	 0.812829	-6.569809	 88.626700	 7.343934	 2.403552	 22.210140	-0.128863	-12.280900	 12.867930	 0.589921	-11.680500	 4.920241	-2.292582	-13.746730	 1.447503	-0.739497	-112.558400	 89.034700	-155.517300	 46.986890	 54.415900	-75.246730	-8.171302	-2.347816	-35.760060	-0.616607	-10.682460	-5.964271	-3.812334	 37.924440	-2.927599	-2.450526	 36.184240	 0.754587	-1.378229	 35.397820	-2.634230	 0.633669	-0.998214	-0.872056	-2.843343	 5.081343	 1.601548	 94.709620	 86.243910	 170.505900	-44.999180	 62.846450	 71.686220	 1.196883	-12.588780	 37.883340	-16.691270	-11.481490	 10.315730	 6.437017	 35.671460	-0.771858	 2.830251	 35.756010	-7.813440	-2.350882	 35.473990	 5.254307
-5.928781	-18.457500	-0.059713	-40.846010	 10.559170	 1.926308	 4.396042	-36.851940	 173.249400	-4.351132	-57.753980	-2.618685	 17.867540	 89.609830	-19.694060	-2.377757	 30.126750	-0.036602	-1.960072	-37.848380	-178.351500	 0.348516	-57.832540	 1.124352	-30.154010	 89.699330	 31.029870	 2.401635	 23.185690	-0.109072	-13.734460	 14.165050	 0.715182	-11.476600	 4.368365	-2.430865	-13.528850	 0.596774	-0.828255	-113.388100	 88.988960	-154.352100	 45.105010	 54.556150	-74.374580	-10.666310	-1.111626	-39.139990	-2.663608	-10.844830	-6.148139	-3.812334	 37.924440	-2.927599	-2.450526	 36.184240	 0.754587	-1.378229	 35.397820	-2.634230	 0.801942	-2.053181	-1.117806	-2.708385	 4.223209	 2.205830	 94.514690	 85.981850	 170.417900	-42.685860	 62.268320	 70.704320	 2.821751	-12.062880	 40.376250	-15.372230	-11.587820	 10.518350	 6.437017	 35.671460	-0.771858	 2.830251	 35.756010	-7.813440	-2.350882	 35.473990	 5.254307
-5.917963	-18.446310	-0.076894	-41.476630	 11.693140	 2.107064	 4.102468	-41.304450	 172.817600	-5.900891	-62.508480	-4.217758	 170.974800	 89.088710	-173.353500	-2.374482	 30.733420	-0.050098	-1.727620	-42.466790	-178.287100	 0.681255	-62.458800	 1.679093	-170.933700	 89.083150	 171.983200	 2.399343	 24.158300	-0.089163	-15.281430	 15.438800	 0.943432	-11.201040	 3.916708	-2.497047	-13.349440	-0.195748	-0.909530	-114.463600	 88.958450	-152.948700	 43.738720	 55.264090	-72.574740	-12.808740	 0.161358	-41.672650	-4.479067	-11.061620	-6.363614	-3.812334	 37.924440	-2.927599	-2.450526	 36.184240	 0.754587	-1.378229	 35.397820	-2.634230	 0.980910	-3.041402	-1.411268	-2.630642	 3.362555	 2.723519	 94.281720	 85.748490	 170.470500	-40.897980	 62.754540	 68.851620	 4.687536	-11.218790	 42.229560	-14.009740	-11.707840	 10.751880	 6.437017	 35.671460	-0.771858	 2.830251	 35.756010	-7.813440	-2.350882	 35.473990	 5.254307
